<?xml version="1.0" encoding="UTF-8"?>
<!DOCTYPE svg PUBLIC "-//W3C//DTD SVG 1.1//EN" "http://www.w3.org/Graphics/SVG/1.1/DTD/svg11.dtd">
<svg xmlns="http://www.w3.org/2000/svg" version="1.1" width="400px" height="400px" style="shape-rendering:geometricPrecision; text-rendering:geometricPrecision; image-rendering:optimizeQuality; fill-rule:evenodd; clip-rule:evenodd" xmlns:xlink="http://www.w3.org/1999/xlink">
<g><path style="opacity:1" fill="#f0f0f0" d="M 152.5,232.5 C 153.167,218.837 153.5,205.004 153.5,191C 153.499,176.817 152.833,162.983 151.5,149.5C 146.787,147.279 143.62,143.612 142,138.5C 140.485,117.681 149.985,109.181 170.5,113C 173.916,114.25 176.583,116.417 178.5,119.5C 216.162,120.667 253.829,120.833 291.5,120C 297.159,115.263 303.492,114.263 310.5,117C 315.693,120.199 318.359,124.866 318.5,131C 318.032,133.857 317.866,136.691 318,139.5C 335,168.5 352,197.5 369,226.5C 386.527,232.225 391.527,243.558 384,260.5C 380.451,264.358 376.285,267.358 371.5,269.5C 352.96,302.082 334.293,334.582 315.5,367C 317.295,379.872 311.629,385.538 298.5,384C 296.884,383.385 295.551,382.385 294.5,381C 257.167,380.333 219.833,380.333 182.5,381C 176.028,387.169 168.361,389.169 159.5,387C 148.566,381.963 144.399,373.463 147,361.5C 147.653,358.193 149.319,355.527 152,353.5C 152.833,322.495 152.667,291.495 151.5,260.5C 145.891,257.788 143.225,253.288 143.5,247C 143.349,240.122 146.349,235.288 152.5,232.5 Z M 286.5,131.5 C 286.92,133.674 286.92,135.674 286.5,137.5C 273.134,148.703 259.634,159.703 246,170.5C 224.875,159.022 203.708,147.688 182.5,136.5C 182.5,134.833 182.5,133.167 182.5,131.5C 217.167,131.5 251.833,131.5 286.5,131.5 Z M 307.5,145.5 C 308.496,145.414 309.329,145.748 310,146.5C 325.667,173.5 341.333,200.5 357,227.5C 357.617,228.449 357.451,229.282 356.5,230C 331.536,217.681 306.869,204.514 282.5,190.5C 281.449,187.854 280.949,185.187 281,182.5C 287.833,170.833 294.667,159.167 301.5,147.5C 303.631,146.831 305.631,146.165 307.5,145.5 Z M 175.5,146.5 C 196.324,156.247 216.657,167.081 236.5,179C 228.015,186.074 219.348,192.908 210.5,199.5C 208.775,198.985 207.108,198.318 205.5,197.5C 195.225,180.609 185.225,163.609 175.5,146.5 Z M 162.5,152.5 C 163.978,152.238 165.311,152.571 166.5,153.5C 176.047,170.098 185.714,186.598 195.5,203C 194.217,206.586 193.55,210.086 193.5,213.5C 184.908,220.381 176.408,227.381 168,234.5C 166.559,233.13 164.892,232.13 163,231.5C 162.5,205.169 162.333,178.835 162.5,152.5 Z M 284.5,154.5 C 280.444,162.274 276.11,169.941 271.5,177.5C 268.855,178.192 266.355,179.192 264,180.5C 261.75,179.292 259.583,177.959 257.5,176.5C 265.941,168.451 274.941,161.118 284.5,154.5 Z M 246.5,184.5 C 250.757,185.962 254.757,187.962 258.5,190.5C 259.395,192.246 260.062,194.08 260.5,196C 252.359,211.8 243.359,226.966 233.5,241.5C 232.558,241.392 231.725,241.059 231,240.5C 226.21,231.75 221.043,223.25 215.5,215C 215.863,211.831 217.197,209.164 219.5,207C 228.982,200.012 237.982,192.512 246.5,184.5 Z M 273.5,200.5 C 277.105,200.799 280.439,201.965 283.5,204C 305.038,216.268 326.704,228.268 348.5,240C 347.874,240.75 347.374,241.584 347,242.5C 346.655,247.809 346.489,252.975 346.5,258C 323.417,272.292 300.25,286.459 277,300.5C 276.097,299.299 274.931,298.465 273.5,298C 270.242,297.788 267.076,297.288 264,296.5C 257.5,285.5 251,274.5 244.5,263.5C 247.437,257.729 247.104,252.229 243.5,247C 252.378,232.747 260.878,218.247 269,203.5C 270.409,202.219 271.909,201.219 273.5,200.5 Z M 219.5,262.5 C 220.11,263.391 220.443,264.391 220.5,265.5C 204.608,292.273 188.941,319.273 173.5,346.5C 169.893,347.489 166.226,347.823 162.5,347.5C 162.333,318.831 162.5,290.165 163,261.5C 170.72,258.072 174.387,252.072 174,243.5C 183.457,236.378 192.624,228.878 201.5,221C 203.259,220.202 204.926,220.369 206.5,221.5C 211.625,229.583 216.625,237.75 221.5,246C 217.346,251.106 216.679,256.606 219.5,262.5 Z M 305.5,358.5 C 303.626,357.715 301.626,357.048 299.5,356.5C 293.061,344.888 286.394,333.388 279.5,322C 282.308,317.623 283.974,312.79 284.5,307.5C 308.25,293.543 331.75,279.21 355,264.5C 356.307,265.772 357.807,266.772 359.5,267.5C 342.167,297.5 324.833,327.5 307.5,357.5C 307.043,358.298 306.376,358.631 305.5,358.5 Z M 230.5,269.5 C 233.044,269.104 235.211,269.771 237,271.5C 242.714,281.764 248.547,291.931 254.5,302C 252.822,305.862 252.155,309.695 252.5,313.5C 229.808,328.669 206.475,342.502 182.5,355C 182.167,354.667 181.833,354.333 181.5,354C 198.224,326.051 214.557,297.885 230.5,269.5 Z M 256.5,324.5 C 260.901,326.639 265.567,327.972 270.5,328.5C 277.5,340.5 284.5,352.5 291.5,364.5C 290.691,366.071 290.357,367.738 290.5,369.5C 255.833,369.5 221.167,369.5 186.5,369.5C 186.281,368.325 186.614,367.325 187.5,366.5C 210.73,352.726 233.73,338.726 256.5,324.5 Z"/></g>
<g><path style="opacity:0.498" fill="#7d7d7d" d="M 286.5,131.5 C 251.833,131.5 217.167,131.5 182.5,131.5C 182.5,133.167 182.5,134.833 182.5,136.5C 181.539,134.735 181.205,132.735 181.5,130.5C 216.671,130.168 251.671,130.502 286.5,131.5 Z"/></g>
<g><path style="opacity:0.761" fill="#bfbfbf" d="M 151.5,149.5 C 152.833,162.983 153.499,176.817 153.5,191C 153.5,205.004 153.167,218.837 152.5,232.5C 152.824,204.759 152.491,177.093 151.5,149.5 Z"/></g>
<g><path style="opacity:0.278" fill="#616161" d="M 219.5,262.5 C 221.552,263.053 221.885,264.053 220.5,265.5C 220.443,264.391 220.11,263.391 219.5,262.5 Z"/></g>
<g><path style="opacity:0.186" fill="#484848" d="M 299.5,356.5 C 301.626,357.048 303.626,357.715 305.5,358.5C 302.918,358.975 300.918,358.308 299.5,356.5 Z"/></g>
</svg>
